<svg width="1407" height="749" viewBox="0 0 1407 749" fill="none" xmlns="http://www.w3.org/2000/svg">
<path d="M104.568 147L104.568 51.069L74.301 51.069V40.296L148.173 40.296V51.069H116.709L116.709 147H104.568ZM176.73 40.467H190.752V41.664C190.068 42.348 189.612 43.089 189.384 43.887C189.27 44.685 189.213 46.053 189.213 47.991V85.953H230.937V40.467L244.959 40.467V41.664C244.275 42.348 243.819 43.089 243.591 43.887C243.477 44.685 243.42 46.053 243.42 47.991L243.42 147H230.766L230.766 96.213H189.213V147H176.73V40.467ZM277.449 147V40.296L342.771 40.296V50.898L288.735 50.898V85.953H333.366V96.897H288.735V136.398H342.258V147H277.449Z" fill="#6A6666"/>
<path d="M145.725 665.025C133.258 665.025 121.8 662 111.35 655.95C101.083 649.717 92.8333 640.092 86.6 627.075C80.55 614.058 77.525 597.467 77.525 577.3C77.525 560.433 79.5417 546.317 83.575 534.95C87.7917 523.4 93.2917 514.233 100.075 507.45C106.858 500.667 114.283 495.808 122.35 492.875C130.6 489.758 138.758 488.2 146.825 488.2C159.658 488.2 170.658 491.133 179.825 497C189.175 502.867 196.233 511.117 201 521.75L181.475 536.325L179.275 537.7L177.9 535.5C178.083 534.217 177.9 532.933 177.35 531.65C176.983 530.183 176.067 528.167 174.6 525.6C170.567 520.833 166.35 517.625 161.95 515.975C157.733 514.142 153.242 513.225 148.475 513.225C141.508 513.225 134.908 515.608 128.675 520.375C122.625 525.142 117.675 532.2 113.825 541.55C110.158 550.717 108.325 562.175 108.325 575.925C108.325 595.725 111.9 611.308 119.05 622.675C126.383 633.858 135.55 639.45 146.55 639.45C153.333 639.45 159.2 637.983 164.15 635.05C169.1 632.117 173.592 627.258 177.625 620.475L199.075 636.425C192.658 646.875 185.05 654.3 176.25 658.7C167.633 662.917 157.458 665.025 145.725 665.025ZM240.875 662V490.675H295.05C315.95 490.675 331.258 495.258 340.975 504.425C350.692 513.592 355.55 525.783 355.55 541C355.55 547.233 354.175 553.558 351.425 559.975C348.858 566.208 345.1 571.8 340.15 576.75C335.383 581.7 329.792 585.367 323.375 587.75L360.225 662H327.5L292.85 590.775H272.225V662H240.875ZM272.225 564.925H297.25C306.05 564.925 312.65 562.908 317.05 558.875C321.45 554.658 323.65 548.975 323.65 541.825C323.65 535.225 321.45 529.542 317.05 524.775C312.65 520.008 306.05 517.625 297.25 517.625H272.225V564.925ZM402.025 662V490.675H513.675V515.975H432.275V559.975H499.1V585.55H432.275V636.7H512.85V662H402.025ZM650.35 662L638.525 622.125H593.7L581.6 662H550.8L608.825 489.575H623.675L681.7 662H650.35ZM616.25 547.05L600.3 599.85H631.925L616.25 547.05ZM759.525 662V516.8H713.325V490.675H837.9V516.8H789.225V662H759.525ZM885.75 662V636.975H919.3V515.7H887.675V490.675H982.275V515.7H948.725V636.975H983.65V662H885.75ZM1085.4 662.55L1030.4 490.675H1061.2L1097.23 611.125L1130.78 490.675H1160.75L1106.3 662.55H1085.4ZM1199.53 662V490.675H1311.18V515.975H1229.78V559.975H1296.6V585.55H1229.78V636.7H1310.35V662H1199.53Z" fill="#4D4B4B"/>
<path d="M145.214 409.92C133.155 409.92 122.072 406.994 111.964 401.142C102.033 395.113 94.0533 385.803 88.024 373.212C82.172 360.621 79.246 344.573 79.246 325.066C79.246 308.751 81.1967 295.097 85.098 284.102C89.1767 272.93 94.4967 264.063 101.058 257.502C107.619 250.941 114.801 246.241 122.604 243.404C130.584 240.389 138.475 238.882 146.278 238.882C158.691 238.882 169.331 241.719 178.198 247.394C187.242 253.069 194.069 261.049 198.68 271.334L179.794 285.432L177.666 286.762L176.336 284.634C176.513 283.393 176.336 282.151 175.804 280.91C175.449 279.491 174.563 277.541 173.144 275.058C169.243 270.447 165.164 267.344 160.908 265.748C156.829 263.975 152.485 263.088 147.874 263.088C141.135 263.088 134.751 265.393 128.722 270.004C122.87 274.615 118.082 281.442 114.358 290.486C110.811 299.353 109.038 310.436 109.038 323.736C109.038 342.888 112.496 357.961 119.412 368.956C126.505 379.773 135.372 385.182 146.012 385.182C152.573 385.182 158.248 383.763 163.036 380.926C167.824 378.089 172.169 373.389 176.07 366.828L196.818 382.256C190.611 392.364 183.252 399.546 174.74 403.802C166.405 407.881 156.563 409.92 145.214 409.92Z" fill="#4D4B4B"/>
<path d="M456.172 406.994V241.276H498.998C513.539 241.276 524.8 243.315 532.78 247.394C540.937 251.295 547.765 256.881 553.262 264.152C558.759 271.6 563.015 280.467 566.03 290.752C569.222 301.037 570.818 312.564 570.818 325.332C570.463 342.001 567.715 356.543 562.572 368.956C557.429 381.192 549.361 390.591 538.366 397.152C527.549 403.713 513.362 406.994 495.806 406.994H456.172ZM485.432 383.586H495.008C506.357 383.586 515.401 381.192 522.14 376.404C529.056 371.616 534.021 364.877 537.036 356.188C540.051 347.499 541.469 337.302 541.292 325.598C541.292 313.362 539.962 302.722 537.302 293.678C534.819 284.634 530.386 277.629 524.002 272.664C517.618 267.699 508.929 265.216 497.934 265.216H485.432V383.586ZM612.846 406.994V241.276H720.842V265.748H642.106V308.308H706.744V333.046H642.106V382.522H720.044V406.994H612.846Z" fill="#4D4B4B"/>
<line x1="1054" y1="393" x2="1403" y2="393" stroke="black" stroke-width="4"/>
<line x1="1405" y1="393" x2="1405" y2="747" stroke="black" stroke-width="4" stroke-linecap="round"/>
<line x1="2" y1="399" x2="2.00002" y2="749" stroke="black" stroke-width="4"/>
<line y1="-2" x2="349" y2="-2" transform="matrix(1 1.21756e-08 -1.68764e-08 -1 1 745)" stroke="black" stroke-width="4"/>
<line x1="1040.5" y1="388.5" x2="1396.5" y2="388.5" stroke="#4A1962" stroke-width="21" stroke-miterlimit="1" stroke-linecap="round"/>
<line x1="1291.5" y1="293.5" x2="1396.5" y2="293.5" stroke="#4A1962" stroke-width="21" stroke-linecap="round" stroke-linejoin="bevel"/>
<line x1="1030.5" y1="388.5" x2="1135.5" y2="388.5" stroke="#4A1962" stroke-width="21" stroke-linecap="round" stroke-linejoin="bevel"/>
<path d="M1162.5 340.5L1396.5 340.5" stroke="#CB3C6F" stroke-width="21" stroke-linecap="round" stroke-linejoin="bevel"/>
<path d="M349.05 253.95L337.95 265.05C335.216 267.784 335.216 272.216 337.95 274.95L378.05 315.05C380.784 317.784 380.784 322.216 378.05 324.95L338.95 364.05C336.216 366.784 336.216 371.216 338.95 373.95L347.05 382.05C349.784 384.784 354.216 384.784 356.95 382.05L417.05 321.95C419.784 319.216 419.784 314.784 417.05 312.05L358.95 253.95C356.216 251.216 351.784 251.216 349.05 253.95Z" stroke="black" stroke-width="6"/>
<path d="M298.95 253.95L310.05 265.05C312.784 267.784 312.784 272.216 310.05 274.95L269.95 315.05C267.216 317.784 267.216 322.216 269.95 324.95L309.05 364.05C311.784 366.784 311.784 371.216 309.05 373.95L300.95 382.05C298.216 384.784 293.784 384.784 291.05 382.05L230.95 321.95C228.216 319.216 228.216 314.784 230.95 312.05L289.05 253.95C291.784 251.216 296.216 251.216 298.95 253.95Z" stroke="black" stroke-width="6"/>
</svg>
