<svg width="1254" height="714" viewBox="0 0 1254 714" fill="none" xmlns="http://www.w3.org/2000/svg">
<path d="M35.568 147L35.568 51.069L5.301 51.069L5.301 40.296L79.173 40.296V51.069H47.709L47.709 147H35.568ZM107.73 40.467H121.752V41.664C121.068 42.348 120.612 43.089 120.384 43.887C120.27 44.685 120.213 46.053 120.213 47.991L120.213 85.953H161.937V40.467L175.959 40.467V41.664C175.275 42.348 174.819 43.089 174.591 43.887C174.477 44.685 174.42 46.053 174.42 47.991L174.42 147H161.766L161.766 96.213H120.213V147H107.73L107.73 40.467ZM208.449 147L208.449 40.296L273.771 40.296V50.898L219.735 50.898V85.953H264.366V96.897H219.735V136.398H273.258V147H208.449Z" fill="#6A6666"/>
<path d="M76.725 665.025C64.2583 665.025 52.8 662 42.35 655.95C32.0833 649.717 23.8333 640.092 17.6 627.075C11.55 614.058 8.525 597.467 8.525 577.3C8.525 560.433 10.5417 546.317 14.575 534.95C18.7917 523.4 24.2917 514.233 31.075 507.45C37.8583 500.667 45.2833 495.808 53.35 492.875C61.6 489.758 69.7583 488.2 77.825 488.2C90.6583 488.2 101.658 491.133 110.825 497C120.175 502.867 127.233 511.117 132 521.75L112.475 536.325L110.275 537.7L108.9 535.5C109.083 534.217 108.9 532.933 108.35 531.65C107.983 530.183 107.067 528.167 105.6 525.6C101.567 520.833 97.35 517.625 92.95 515.975C88.7333 514.142 84.2417 513.225 79.475 513.225C72.5083 513.225 65.9083 515.608 59.675 520.375C53.625 525.142 48.675 532.2 44.825 541.55C41.1583 550.717 39.325 562.175 39.325 575.925C39.325 595.725 42.9 611.308 50.05 622.675C57.3833 633.858 66.55 639.45 77.55 639.45C84.3333 639.45 90.2 637.983 95.15 635.05C100.1 632.117 104.592 627.258 108.625 620.475L130.075 636.425C123.658 646.875 116.05 654.3 107.25 658.7C98.6333 662.917 88.4583 665.025 76.725 665.025ZM171.875 662V490.675H226.05C246.95 490.675 262.258 495.258 271.975 504.425C281.692 513.592 286.55 525.783 286.55 541C286.55 547.233 285.175 553.558 282.425 559.975C279.858 566.208 276.1 571.8 271.15 576.75C266.383 581.7 260.792 585.367 254.375 587.75L291.225 662H258.5L223.85 590.775H203.225V662H171.875ZM203.225 564.925H228.25C237.05 564.925 243.65 562.908 248.05 558.875C252.45 554.658 254.65 548.975 254.65 541.825C254.65 535.225 252.45 529.542 248.05 524.775C243.65 520.008 237.05 517.625 228.25 517.625H203.225V564.925ZM333.025 662V490.675H444.675V515.975H363.275V559.975H430.1V585.55H363.275V636.7H443.85V662H333.025ZM581.35 662L569.525 622.125H524.7L512.6 662H481.8L539.825 489.575H554.675L612.7 662H581.35ZM547.25 547.05L531.3 599.85H562.925L547.25 547.05ZM690.525 662V516.8H644.325V490.675H768.9V516.8H720.225V662H690.525ZM816.75 662V636.975H850.3V515.7H818.675V490.675H913.275V515.7H879.725V636.975H914.65V662H816.75ZM1016.4 662.55L961.4 490.675H992.2L1028.23 611.125L1061.78 490.675H1091.75L1037.3 662.55H1016.4ZM1130.53 662V490.675H1242.18V515.975H1160.78V559.975H1227.6V585.55H1160.78V636.7H1241.35V662H1130.53Z" fill="#4D4B4B"/>
<path d="M76.214 409.92C64.1553 409.92 53.072 406.994 42.964 401.142C33.0333 395.113 25.0533 385.803 19.024 373.212C13.172 360.621 10.246 344.573 10.246 325.066C10.246 308.751 12.1967 295.097 16.098 284.102C20.1767 272.93 25.4967 264.063 32.058 257.502C38.6193 250.941 45.8013 246.241 53.604 243.404C61.584 240.389 69.4753 238.882 77.278 238.882C89.6913 238.882 100.331 241.719 109.198 247.394C118.242 253.069 125.069 261.049 129.68 271.334L110.794 285.432L108.666 286.762L107.336 284.634C107.513 283.393 107.336 282.151 106.804 280.91C106.449 279.491 105.563 277.541 104.144 275.058C100.243 270.447 96.164 267.344 91.908 265.748C87.8293 263.975 83.4847 263.088 78.874 263.088C72.1353 263.088 65.7513 265.393 59.722 270.004C53.87 274.615 49.082 281.442 45.358 290.486C41.8113 299.353 40.038 310.436 40.038 323.736C40.038 342.888 43.496 357.961 50.412 368.956C57.5053 379.773 66.372 385.182 77.012 385.182C83.5733 385.182 89.248 383.763 94.036 380.926C98.824 378.089 103.169 373.389 107.07 366.828L127.818 382.256C121.611 392.364 114.252 399.546 105.74 403.802C97.4053 407.881 87.5633 409.92 76.214 409.92Z" fill="#4D4B4B"/>
<path d="M387.172 406.994V241.276H429.998C444.539 241.276 455.8 243.315 463.78 247.394C471.937 251.295 478.765 256.881 484.262 264.152C489.759 271.6 494.015 280.467 497.03 290.752C500.222 301.037 501.818 312.564 501.818 325.332C501.463 342.001 498.715 356.543 493.572 368.956C488.429 381.192 480.361 390.591 469.366 397.152C458.549 403.713 444.362 406.994 426.806 406.994H387.172ZM416.432 383.586H426.008C437.357 383.586 446.401 381.192 453.14 376.404C460.056 371.616 465.021 364.877 468.036 356.188C471.051 347.499 472.469 337.302 472.292 325.598C472.292 313.362 470.962 302.722 468.302 293.678C465.819 284.634 461.386 277.629 455.002 272.664C448.618 267.699 439.929 265.216 428.934 265.216H416.432V383.586ZM543.846 406.994V241.276H651.842V265.748H573.106V308.308H637.744V333.046H573.106V382.522H651.044V406.994H543.846Z" fill="#4D4B4B"/>
<line x1="901" y1="393" x2="1250" y2="393" stroke="black" stroke-width="4"/>
<line x1="887.5" y1="388.5" x2="1243.5" y2="388.5" stroke="#4A1962" stroke-width="21" stroke-miterlimit="1" stroke-linecap="round"/>
<line x1="1138.5" y1="293.5" x2="1243.5" y2="293.5" stroke="#4A1962" stroke-width="21" stroke-linecap="round" stroke-linejoin="bevel"/>
<line x1="961.5" y1="388.5" x2="1066.5" y2="388.5" stroke="#4A1962" stroke-width="21" stroke-linecap="round" stroke-linejoin="bevel"/>
<path d="M1009.5 340.5L1243.5 340.5" stroke="#CB3C6F" stroke-width="21" stroke-linecap="round" stroke-linejoin="bevel"/>
<path d="M280.05 253.95L268.95 265.05C266.216 267.784 266.216 272.216 268.95 274.95L309.05 315.05C311.784 317.784 311.784 322.216 309.05 324.95L269.95 364.05C267.216 366.784 267.216 371.216 269.95 373.95L278.05 382.05C280.784 384.784 285.216 384.784 287.95 382.05L348.05 321.95C350.784 319.216 350.784 314.784 348.05 312.05L289.95 253.95C287.216 251.216 282.784 251.216 280.05 253.95Z" stroke="black" stroke-width="6"/>
<path d="M229.95 253.95L241.05 265.05C243.784 267.784 243.784 272.216 241.05 274.95L200.95 315.05C198.216 317.784 198.216 322.216 200.95 324.95L240.05 364.05C242.784 366.784 242.784 371.216 240.05 373.95L231.95 382.05C229.216 384.784 224.784 384.784 222.05 382.05L161.95 321.95C159.216 319.216 159.216 314.784 161.95 312.05L220.05 253.95C222.784 251.216 227.216 251.216 229.95 253.95Z" stroke="black" stroke-width="6"/>
</svg>
