<svg width="1299" height="722" viewBox="0 0 1299 722" fill="none" xmlns="http://www.w3.org/2000/svg">
<path d="M80.568 147L80.568 51.069L50.301 51.069V40.296L124.173 40.296V51.069H92.709L92.709 147H80.568ZM152.73 40.467H166.752V41.664C166.068 42.348 165.612 43.089 165.384 43.887C165.27 44.685 165.213 46.053 165.213 47.991V85.953H206.937V40.467L220.959 40.467V41.664C220.275 42.348 219.819 43.089 219.591 43.887C219.477 44.685 219.42 46.053 219.42 47.991L219.42 147H206.766L206.766 96.213H165.213V147H152.73V40.467ZM253.449 147L253.449 40.296L318.771 40.296V50.898L264.735 50.898V85.953H309.366V96.897H264.735V136.398H318.258V147H253.449Z" fill="white"/>
<path d="M121.725 665.025C109.258 665.025 97.8 662 87.35 655.95C77.0833 649.717 68.8333 640.092 62.6 627.075C56.55 614.058 53.525 597.467 53.525 577.3C53.525 560.433 55.5417 546.317 59.575 534.95C63.7917 523.4 69.2917 514.233 76.075 507.45C82.8583 500.667 90.2833 495.808 98.35 492.875C106.6 489.758 114.758 488.2 122.825 488.2C135.658 488.2 146.658 491.133 155.825 497C165.175 502.867 172.233 511.117 177 521.75L157.475 536.325L155.275 537.7L153.9 535.5C154.083 534.217 153.9 532.933 153.35 531.65C152.983 530.183 152.067 528.167 150.6 525.6C146.567 520.833 142.35 517.625 137.95 515.975C133.733 514.142 129.242 513.225 124.475 513.225C117.508 513.225 110.908 515.608 104.675 520.375C98.625 525.142 93.675 532.2 89.825 541.55C86.1583 550.717 84.325 562.175 84.325 575.925C84.325 595.725 87.9 611.308 95.05 622.675C102.383 633.858 111.55 639.45 122.55 639.45C129.333 639.45 135.2 637.983 140.15 635.05C145.1 632.117 149.592 627.258 153.625 620.475L175.075 636.425C168.658 646.875 161.05 654.3 152.25 658.7C143.633 662.917 133.458 665.025 121.725 665.025ZM216.875 662V490.675H271.05C291.95 490.675 307.258 495.258 316.975 504.425C326.692 513.592 331.55 525.783 331.55 541C331.55 547.233 330.175 553.558 327.425 559.975C324.858 566.208 321.1 571.8 316.15 576.75C311.383 581.7 305.792 585.367 299.375 587.75L336.225 662H303.5L268.85 590.775H248.225V662H216.875ZM248.225 564.925H273.25C282.05 564.925 288.65 562.908 293.05 558.875C297.45 554.658 299.65 548.975 299.65 541.825C299.65 535.225 297.45 529.542 293.05 524.775C288.65 520.008 282.05 517.625 273.25 517.625H248.225V564.925ZM378.025 662V490.675H489.675V515.975H408.275V559.975H475.1V585.55H408.275V636.7H488.85V662H378.025ZM626.35 662L614.525 622.125H569.7L557.6 662H526.8L584.825 489.575H599.675L657.7 662H626.35ZM592.25 547.05L576.3 599.85H607.925L592.25 547.05ZM735.525 662V516.8H689.325V490.675H813.9V516.8H765.225V662H735.525ZM861.75 662V636.975H895.3V515.7H863.675V490.675H958.275V515.7H924.725V636.975H959.65V662H861.75ZM1061.4 662.55L1006.4 490.675H1037.2L1073.23 611.125L1106.78 490.675H1136.75L1082.3 662.55H1061.4ZM1175.53 662V490.675H1287.18V515.975H1205.78V559.975H1272.6V585.55H1205.78V636.7H1286.35V662H1175.53Z" fill="white"/>
<path d="M121.214 409.92C109.155 409.92 98.072 406.994 87.964 401.142C78.0333 395.113 70.0533 385.803 64.024 373.212C58.172 360.621 55.246 344.573 55.246 325.066C55.246 308.751 57.1967 295.097 61.098 284.102C65.1767 272.93 70.4967 264.063 77.058 257.502C83.6193 250.941 90.8013 246.241 98.604 243.404C106.584 240.389 114.475 238.882 122.278 238.882C134.691 238.882 145.331 241.719 154.198 247.394C163.242 253.069 170.069 261.049 174.68 271.334L155.794 285.432L153.666 286.762L152.336 284.634C152.513 283.393 152.336 282.151 151.804 280.91C151.449 279.491 150.563 277.541 149.144 275.058C145.243 270.447 141.164 267.344 136.908 265.748C132.829 263.975 128.485 263.088 123.874 263.088C117.135 263.088 110.751 265.393 104.722 270.004C98.87 274.615 94.082 281.442 90.358 290.486C86.8113 299.353 85.038 310.436 85.038 323.736C85.038 342.888 88.496 357.961 95.412 368.956C102.505 379.773 111.372 385.182 122.012 385.182C128.573 385.182 134.248 383.763 139.036 380.926C143.824 378.089 148.169 373.389 152.07 366.828L172.818 382.256C166.611 392.364 159.252 399.546 150.74 403.802C142.405 407.881 132.563 409.92 121.214 409.92Z" fill="white"/>
<path d="M432.172 406.994V241.276H474.998C489.539 241.276 500.8 243.315 508.78 247.394C516.937 251.295 523.765 256.881 529.262 264.152C534.759 271.6 539.015 280.467 542.03 290.752C545.222 301.037 546.818 312.564 546.818 325.332C546.463 342.001 543.715 356.543 538.572 368.956C533.429 381.192 525.361 390.591 514.366 397.152C503.549 403.713 489.362 406.994 471.806 406.994H432.172ZM461.432 383.586H471.008C482.357 383.586 491.401 381.192 498.14 376.404C505.056 371.616 510.021 364.877 513.036 356.188C516.051 347.499 517.469 337.302 517.292 325.598C517.292 313.362 515.962 302.722 513.302 293.678C510.819 284.634 506.386 277.629 500.002 272.664C493.618 267.699 484.929 265.216 473.934 265.216H461.432V383.586ZM588.846 406.994V241.276H696.842V265.748H618.106V308.308H682.744V333.046H618.106V382.522H696.044V406.994H588.846Z" fill="white"/>
<line x1="946" y1="393" x2="1295" y2="393" stroke="white" stroke-width="4"/>
<line x1="932.5" y1="388.5" x2="1288.5" y2="388.5" stroke="white" stroke-width="21" stroke-linecap="round" stroke-linejoin="round"/>
<line x1="1183.5" y1="273.5" x2="1288.5" y2="273.5" stroke="white" stroke-width="21" stroke-linecap="round" stroke-linejoin="bevel"/>
<path d="M1054.5 330.5L1288.5 330.5" stroke="#CB3C6F" stroke-width="21" stroke-linecap="round" stroke-linejoin="bevel"/>
<path d="M320.05 253.95L308.95 265.05C306.216 267.784 306.216 272.216 308.95 274.95L349.05 315.05C351.784 317.784 351.784 322.216 349.05 324.95L309.95 364.05C307.216 366.784 307.216 371.216 309.95 373.95L318.05 382.05C320.784 384.784 325.216 384.784 327.95 382.05L388.05 321.95C390.784 319.216 390.784 314.784 388.05 312.05L329.95 253.95C327.216 251.216 322.784 251.216 320.05 253.95Z" stroke="white" stroke-width="6"/>
<path d="M269.95 253.95L281.05 265.05C283.784 267.784 283.784 272.216 281.05 274.95L240.95 315.05C238.216 317.784 238.216 322.216 240.95 324.95L280.05 364.05C282.784 366.784 282.784 371.216 280.05 373.95L271.95 382.05C269.216 384.784 264.784 384.784 262.05 382.05L201.95 321.95C199.216 319.216 199.216 314.784 201.95 312.05L260.05 253.95C262.784 251.216 267.216 251.216 269.95 253.95Z" stroke="white" stroke-width="6"/>
<line x1="3.5" y1="249" x2="3.50002" y2="722" stroke="white" stroke-opacity="0.25" stroke-width="7"/>
<line x1="7" y1="718.5" x2="197" y2="718.5" stroke="white" stroke-opacity="0.25" stroke-width="7"/>
</svg>
