<svg width="1295" height="722" viewBox="0 0 1295 722" fill="none" xmlns="http://www.w3.org/2000/svg">
<path d="M75.568 147L75.568 51.069L45.301 51.069V40.296L119.173 40.296V51.069H87.709L87.709 147H75.568ZM147.73 40.467H161.752V41.664C161.068 42.348 160.612 43.089 160.384 43.887C160.27 44.685 160.213 46.053 160.213 47.991V85.953H201.937V40.467L215.959 40.467V41.664C215.275 42.348 214.819 43.089 214.591 43.887C214.477 44.685 214.42 46.053 214.42 47.991L214.42 147H201.766L201.766 96.213H160.213V147H147.73V40.467ZM248.449 147L248.449 40.296L313.771 40.296V50.898L259.735 50.898V85.953H304.366V96.897H259.735V136.398H313.258V147H248.449Z" fill="#6A6666"/>
<path d="M116.725 665.025C104.258 665.025 92.8 662 82.35 655.95C72.0833 649.717 63.8333 640.092 57.6 627.075C51.55 614.058 48.525 597.467 48.525 577.3C48.525 560.433 50.5417 546.317 54.575 534.95C58.7917 523.4 64.2917 514.233 71.075 507.45C77.8583 500.667 85.2833 495.808 93.35 492.875C101.6 489.758 109.758 488.2 117.825 488.2C130.658 488.2 141.658 491.133 150.825 497C160.175 502.867 167.233 511.117 172 521.75L152.475 536.325L150.275 537.7L148.9 535.5C149.083 534.217 148.9 532.933 148.35 531.65C147.983 530.183 147.067 528.167 145.6 525.6C141.567 520.833 137.35 517.625 132.95 515.975C128.733 514.142 124.242 513.225 119.475 513.225C112.508 513.225 105.908 515.608 99.675 520.375C93.625 525.142 88.675 532.2 84.825 541.55C81.1583 550.717 79.325 562.175 79.325 575.925C79.325 595.725 82.9 611.308 90.05 622.675C97.3833 633.858 106.55 639.45 117.55 639.45C124.333 639.45 130.2 637.983 135.15 635.05C140.1 632.117 144.592 627.258 148.625 620.475L170.075 636.425C163.658 646.875 156.05 654.3 147.25 658.7C138.633 662.917 128.458 665.025 116.725 665.025ZM211.875 662V490.675H266.05C286.95 490.675 302.258 495.258 311.975 504.425C321.692 513.592 326.55 525.783 326.55 541C326.55 547.233 325.175 553.558 322.425 559.975C319.858 566.208 316.1 571.8 311.15 576.75C306.383 581.7 300.792 585.367 294.375 587.75L331.225 662H298.5L263.85 590.775H243.225V662H211.875ZM243.225 564.925H268.25C277.05 564.925 283.65 562.908 288.05 558.875C292.45 554.658 294.65 548.975 294.65 541.825C294.65 535.225 292.45 529.542 288.05 524.775C283.65 520.008 277.05 517.625 268.25 517.625H243.225V564.925ZM373.025 662V490.675H484.675V515.975H403.275V559.975H470.1V585.55H403.275V636.7H483.85V662H373.025ZM621.35 662L609.525 622.125H564.7L552.6 662H521.8L579.825 489.575H594.675L652.7 662H621.35ZM587.25 547.05L571.3 599.85H602.925L587.25 547.05ZM730.525 662V516.8H684.325V490.675H808.9V516.8H760.225V662H730.525ZM856.75 662V636.975H890.3V515.7H858.675V490.675H953.275V515.7H919.725V636.975H954.65V662H856.75ZM1056.4 662.55L1001.4 490.675H1032.2L1068.23 611.125L1101.78 490.675H1131.75L1077.3 662.55H1056.4ZM1170.53 662V490.675H1282.18V515.975H1200.78V559.975H1267.6V585.55H1200.78V636.7H1281.35V662H1170.53Z" fill="#4D4B4B"/>
<path d="M116.214 409.92C104.155 409.92 93.072 406.994 82.964 401.142C73.0333 395.113 65.0533 385.803 59.024 373.212C53.172 360.621 50.246 344.573 50.246 325.066C50.246 308.751 52.1967 295.097 56.098 284.102C60.1767 272.93 65.4967 264.063 72.058 257.502C78.6193 250.941 85.8013 246.241 93.604 243.404C101.584 240.389 109.475 238.882 117.278 238.882C129.691 238.882 140.331 241.719 149.198 247.394C158.242 253.069 165.069 261.049 169.68 271.334L150.794 285.432L148.666 286.762L147.336 284.634C147.513 283.393 147.336 282.151 146.804 280.91C146.449 279.491 145.563 277.541 144.144 275.058C140.243 270.447 136.164 267.344 131.908 265.748C127.829 263.975 123.485 263.088 118.874 263.088C112.135 263.088 105.751 265.393 99.722 270.004C93.87 274.615 89.082 281.442 85.358 290.486C81.8113 299.353 80.038 310.436 80.038 323.736C80.038 342.888 83.496 357.961 90.412 368.956C97.5053 379.773 106.372 385.182 117.012 385.182C123.573 385.182 129.248 383.763 134.036 380.926C138.824 378.089 143.169 373.389 147.07 366.828L167.818 382.256C161.611 392.364 154.252 399.546 145.74 403.802C137.405 407.881 127.563 409.92 116.214 409.92Z" fill="#4D4B4B"/>
<path d="M427.172 406.994V241.276H469.998C484.539 241.276 495.8 243.315 503.78 247.394C511.937 251.295 518.765 256.881 524.262 264.152C529.759 271.6 534.015 280.467 537.03 290.752C540.222 301.037 541.818 312.564 541.818 325.332C541.463 342.001 538.715 356.543 533.572 368.956C528.429 381.192 520.361 390.591 509.366 397.152C498.549 403.713 484.362 406.994 466.806 406.994H427.172ZM456.432 383.586H466.008C477.357 383.586 486.401 381.192 493.14 376.404C500.056 371.616 505.021 364.877 508.036 356.188C511.051 347.499 512.469 337.302 512.292 325.598C512.292 313.362 510.962 302.722 508.302 293.678C505.819 284.634 501.386 277.629 495.002 272.664C488.618 267.699 479.929 265.216 468.934 265.216H456.432V383.586ZM583.846 406.994V241.276H691.842V265.748H613.106V308.308H677.744V333.046H613.106V382.522H691.044V406.994H583.846Z" fill="#4D4B4B"/>
<line x1="941" y1="393" x2="1290" y2="393" stroke="black" stroke-width="4"/>
<line x1="927.5" y1="388.5" x2="1283.5" y2="388.5" stroke="#4A1962" stroke-width="21" stroke-miterlimit="1" stroke-linecap="round"/>
<line x1="1178.5" y1="293.5" x2="1283.5" y2="293.5" stroke="#4A1962" stroke-width="21" stroke-linecap="round" stroke-linejoin="bevel"/>
<line x1="1001.5" y1="388.5" x2="1106.5" y2="388.5" stroke="#4A1962" stroke-width="21" stroke-linecap="round" stroke-linejoin="bevel"/>
<path d="M1049.5 340.5L1283.5 340.5" stroke="#CB3C6F" stroke-width="21" stroke-linecap="round" stroke-linejoin="bevel"/>
<path d="M320.05 253.95L308.95 265.05C306.216 267.784 306.216 272.216 308.95 274.95L349.05 315.05C351.784 317.784 351.784 322.216 349.05 324.95L309.95 364.05C307.216 366.784 307.216 371.216 309.95 373.95L318.05 382.05C320.784 384.784 325.216 384.784 327.95 382.05L388.05 321.95C390.784 319.216 390.784 314.784 388.05 312.05L329.95 253.95C327.216 251.216 322.784 251.216 320.05 253.95Z" stroke="black" stroke-width="6"/>
<path d="M269.95 253.95L281.05 265.05C283.784 267.784 283.784 272.216 281.05 274.95L240.95 315.05C238.216 317.784 238.216 322.216 240.95 324.95L280.05 364.05C282.784 366.784 282.784 371.216 280.05 373.95L271.95 382.05C269.216 384.784 264.784 384.784 262.05 382.05L201.95 321.95C199.216 319.216 199.216 314.784 201.95 312.05L260.05 253.95C262.784 251.216 267.216 251.216 269.95 253.95Z" stroke="black" stroke-width="6"/>
<line x1="3.5" y1="249" x2="3.50002" y2="722" stroke="black" stroke-opacity="0.25" stroke-width="7"/>
<line x1="7" y1="718.5" x2="197" y2="718.5" stroke="black" stroke-opacity="0.25" stroke-width="7"/>
</svg>
