<svg xmlns="http://www.w3.org/2000/svg" viewBox="0 0 16660 340" width="16660" height="340"><g><defs><clipPath id="clip_frame0_group"><path d="M0 0h340v340H0z"/></clipPath></defs></g><g transform="translate(340)"><defs><clipPath id="clip_frame1_group"><path d="M0 0h340v340H0z"/></clipPath></defs><g clip-path="url(#clip_frame1_group)"><path d="M170 0C76.273 0 0 76.273 0 170s76.273 170 170 170 170-76.273 170-170S263.727 0 170 0zm0 28.333c78.398 0 141.667 63.269 141.667 141.667S248.398 311.667 170 311.667 28.333 248.398 28.333 170 91.602 28.333 170 28.333z" fill="#000000" fill-opacity=".000351"/></g></g><g transform="translate(680)"><defs><clipPath id="clip_frame2_group"><path d="M0 0h340v340H0z"/></clipPath></defs><g clip-path="url(#clip_frame2_group)"><path d="M170 0C76.273 0 0 76.273 0 170s76.273 170 170 170 170-76.273 170-170S263.727 0 170 0zm0 28.333c78.398 0 141.667 63.269 141.667 141.667S248.398 311.667 170 311.667 28.333 248.398 28.333 170 91.602 28.333 170 28.333z" fill="#010000" fill-opacity=".001442"/></g></g><g transform="translate(1020)"><defs><clipPath id="clip_frame3_group"><path d="M0 0h340v340H0z"/></clipPath></defs><g clip-path="url(#clip_frame3_group)"><path d="M170 0C76.273 0 0 76.273 0 170s76.273 170 170 170 170-76.273 170-170S263.727 0 170 0zm0 28.333c78.398 0 141.667 63.269 141.667 141.667S248.398 311.667 170 311.667 28.333 248.398 28.333 170 91.602 28.333 170 28.333z" fill="#020000" fill-opacity=".003331"/></g></g><g transform="translate(1360)"><defs><clipPath id="clip_frame4_group"><path d="M0 0h340v340H0z"/></clipPath></defs><g clip-path="url(#clip_frame4_group)"><path d="M170 0C76.273 0 0 76.273 0 170s76.273 170 170 170 170-76.273 170-170S263.727 0 170 0zm0 28.333c78.398 0 141.667 63.269 141.667 141.667S248.398 311.667 170 311.667 28.333 248.398 28.333 170 91.602 28.333 170 28.333z" fill="#030000" fill-opacity=".006087"/></g></g><g transform="translate(1700)"><defs><clipPath id="clip_frame5_group"><path d="M0 0h340v340H0z"/></clipPath></defs><g clip-path="url(#clip_frame5_group)"><path d="M170 0C76.273 0 0 76.273 0 170s76.273 170 170 170 170-76.273 170-170S263.727 0 170 0zm0 28.333c78.398 0 141.667 63.269 141.667 141.667S248.398 311.667 170 311.667 28.333 248.398 28.333 170 91.602 28.333 170 28.333z" fill="#050000" fill-opacity=".009782"/></g></g><g transform="translate(2040)"><defs><clipPath id="clip_frame6_group"><path d="M0 0h340v340H0z"/></clipPath></defs><g clip-path="url(#clip_frame6_group)"><path d="M170 0C76.273 0 0 76.273 0 170s76.273 170 170 170 170-76.273 170-170S263.727 0 170 0zm0 28.333c78.398 0 141.667 63.269 141.667 141.667S248.398 311.667 170 311.667 28.333 248.398 28.333 170 91.602 28.333 170 28.333z" fill="#080000" fill-opacity=".014499"/></g></g><g transform="translate(2380)"><defs><clipPath id="clip_frame7_group"><path d="M0 0h340v340H0z"/></clipPath></defs><g clip-path="url(#clip_frame7_group)"><path d="M170 0C76.273 0 0 76.273 0 170s76.273 170 170 170 170-76.273 170-170S263.727 0 170 0zm0 28.333c78.398 0 141.667 63.269 141.667 141.667S248.398 311.667 170 311.667 28.333 248.398 28.333 170 91.602 28.333 170 28.333z" fill="#0b0000" fill-opacity=".020329"/></g></g><g transform="translate(2720)"><defs><clipPath id="clip_frame8_group"><path d="M0 0h340v340H0z"/></clipPath></defs><g clip-path="url(#clip_frame8_group)"><path d="M170 0C76.273 0 0 76.273 0 170s76.273 170 170 170 170-76.273 170-170S263.727 0 170 0zm0 28.333c78.398 0 141.667 63.269 141.667 141.667S248.398 311.667 170 311.667 28.333 248.398 28.333 170 91.602 28.333 170 28.333z" fill="#0f0000" fill-opacity=".027374"/></g></g><g transform="translate(3060)"><defs><clipPath id="clip_frame9_group"><path d="M0 0h340v340H0z"/></clipPath></defs><g clip-path="url(#clip_frame9_group)"><path d="M170 0C76.273 0 0 76.273 0 170s76.273 170 170 170 170-76.273 170-170S263.727 0 170 0zm0 28.333c78.398 0 141.667 63.269 141.667 141.667S248.398 311.667 170 311.667 28.333 248.398 28.333 170 91.602 28.333 170 28.333z" fill="#140000" fill-opacity=".035746"/></g></g><g transform="translate(3400)"><defs><clipPath id="clip_frame10_group"><path d="M0 0h340v340H0z"/></clipPath></defs><g clip-path="url(#clip_frame10_group)"><path d="M170 0C76.273 0 0 76.273 0 170s76.273 170 170 170 170-76.273 170-170S263.727 0 170 0zm0 28.333c78.398 0 141.667 63.269 141.667 141.667S248.398 311.667 170 311.667 28.333 248.398 28.333 170 91.602 28.333 170 28.333z" fill="#1a0000" fill-opacity=".045567"/></g></g><g transform="translate(3740)"><defs><clipPath id="clip_frame11_group"><path d="M0 0h340v340H0z"/></clipPath></defs><g clip-path="url(#clip_frame11_group)"><path d="M170 0C76.273 0 0 76.273 0 170s76.273 170 170 170 170-76.273 170-170S263.727 0 170 0zm0 28.333c78.398 0 141.667 63.269 141.667 141.667S248.398 311.667 170 311.667 28.333 248.398 28.333 170 91.602 28.333 170 28.333z" fill="#210000" fill-opacity=".056971"/></g></g><g transform="translate(4080)"><defs><clipPath id="clip_frame12_group"><path d="M0 0h340v340H0z"/></clipPath></defs><g clip-path="url(#clip_frame12_group)"><path d="M170 0C76.273 0 0 76.273 0 170s76.273 170 170 170 170-76.273 170-170S263.727 0 170 0zm0 28.333c78.398 0 141.667 63.269 141.667 141.667S248.398 311.667 170 311.667 28.333 248.398 28.333 170 91.602 28.333 170 28.333z" fill="#290000" fill-opacity=".070101"/></g></g><g transform="translate(4420)"><defs><clipPath id="clip_frame13_group"><path d="M0 0h340v340H0z"/></clipPath></defs><g clip-path="url(#clip_frame13_group)"><path d="M170 0C76.273 0 0 76.273 0 170s76.273 170 170 170 170-76.273 170-170S263.727 0 170 0zm0 28.333c78.398 0 141.667 63.269 141.667 141.667S248.398 311.667 170 311.667 28.333 248.398 28.333 170 91.602 28.333 170 28.333z" fill="#320000" fill-opacity=".085105"/></g></g><g transform="translate(4760)"><defs><clipPath id="clip_frame14_group"><path d="M0 0h340v340H0z"/></clipPath></defs><g clip-path="url(#clip_frame14_group)"><path d="M170 0C76.273 0 0 76.273 0 170s76.273 170 170 170 170-76.273 170-170S263.727 0 170 0zm0 28.333c78.398 0 141.667 63.269 141.667 141.667S248.398 311.667 170 311.667 28.333 248.398 28.333 170 91.602 28.333 170 28.333z" fill="#3c0000" fill-opacity=".102136"/></g></g><g transform="translate(5100)"><defs><clipPath id="clip_frame15_group"><path d="M0 0h340v340H0z"/></clipPath></defs><g clip-path="url(#clip_frame15_group)"><path d="M170 0C76.273 0 0 76.273 0 170s76.273 170 170 170 170-76.273 170-170S263.727 0 170 0zm0 28.333c78.398 0 141.667 63.269 141.667 141.667S248.398 311.667 170 311.667 28.333 248.398 28.333 170 91.602 28.333 170 28.333z" fill="#480000" fill-opacity=".121335"/></g></g><g transform="translate(5440)"><defs><clipPath id="clip_frame16_group"><path d="M0 0h340v340H0z"/></clipPath></defs><g clip-path="url(#clip_frame16_group)"><path d="M170 0C76.273 0 0 76.273 0 170s76.273 170 170 170 170-76.273 170-170S263.727 0 170 0zm0 28.333c78.398 0 141.667 63.269 141.667 141.667S248.398 311.667 170 311.667 28.333 248.398 28.333 170 91.602 28.333 170 28.333z" fill="#540000" fill-opacity=".142823"/></g></g><g transform="translate(5780)"><defs><clipPath id="clip_frame17_group"><path d="M0 0h340v340H0z"/></clipPath></defs><g clip-path="url(#clip_frame17_group)"><path d="M170 0C76.273 0 0 76.273 0 170s76.273 170 170 170 170-76.273 170-170S263.727 0 170 0zm0 28.333c78.398 0 141.667 63.269 141.667 141.667S248.398 311.667 170 311.667 28.333 248.398 28.333 170 91.602 28.333 170 28.333z" fill="#600000" fill-opacity=".166683"/></g></g><g transform="translate(6120)"><defs><clipPath id="clip_frame18_group"><path d="M0 0h340v340H0z"/></clipPath></defs><g clip-path="url(#clip_frame18_group)"><path d="M170 0C76.273 0 0 76.273 0 170s76.273 170 170 170 170-76.273 170-170S263.727 0 170 0zm0 28.333c78.398 0 141.667 63.269 141.667 141.667S248.398 311.667 170 311.667 28.333 248.398 28.333 170 91.602 28.333 170 28.333z" fill="#6d0000" fill-opacity=".192931"/></g></g><g transform="translate(6460)"><defs><clipPath id="clip_frame19_group"><path d="M0 0h340v340H0z"/></clipPath></defs><g clip-path="url(#clip_frame19_group)"><path d="M170 0C76.273 0 0 76.273 0 170s76.273 170 170 170 170-76.273 170-170S263.727 0 170 0zm0 28.333c78.398 0 141.667 63.269 141.667 141.667S248.398 311.667 170 311.667 28.333 248.398 28.333 170 91.602 28.333 170 28.333z" fill="#790000" fill-opacity=".221492"/></g></g><g transform="translate(6800)"><defs><clipPath id="clip_frame20_group"><path d="M0 0h340v340H0z"/></clipPath></defs><g clip-path="url(#clip_frame20_group)"><path d="M170 0C76.273 0 0 76.273 0 170s76.273 170 170 170 170-76.273 170-170S263.727 0 170 0zm0 28.333c78.398 0 141.667 63.269 141.667 141.667S248.398 311.667 170 311.667 28.333 248.398 28.333 170 91.602 28.333 170 28.333z" fill="#840000" fill-opacity=".25218"/></g></g><g transform="translate(7140)"><defs><clipPath id="clip_frame21_group"><path d="M0 0h340v340H0z"/></clipPath></defs><g clip-path="url(#clip_frame21_group)"><path d="M170 0C76.273 0 0 76.273 0 170s76.273 170 170 170 170-76.273 170-170S263.727 0 170 0zm0 28.333c78.398 0 141.667 63.269 141.667 141.667S248.398 311.667 170 311.667 28.333 248.398 28.333 170 91.602 28.333 170 28.333z" fill="#8f0000" fill-opacity=".284679"/></g></g><g transform="translate(7480)"><defs><clipPath id="clip_frame22_group"><path d="M0 0h340v340H0z"/></clipPath></defs><g clip-path="url(#clip_frame22_group)"><path d="M170 0C76.273 0 0 76.273 0 170s76.273 170 170 170 170-76.273 170-170S263.727 0 170 0zm0 28.333c78.398 0 141.667 63.269 141.667 141.667S248.398 311.667 170 311.667 28.333 248.398 28.333 170 91.602 28.333 170 28.333z" fill="#990000" fill-opacity=".318554"/></g></g><g transform="translate(7820)"><defs><clipPath id="clip_frame23_group"><path d="M0 0h340v340H0z"/></clipPath></defs><g clip-path="url(#clip_frame23_group)"><path d="M170 0C76.273 0 0 76.273 0 170s76.273 170 170 170 170-76.273 170-170S263.727 0 170 0zm0 28.333c78.398 0 141.667 63.269 141.667 141.667S248.398 311.667 170 311.667 28.333 248.398 28.333 170 91.602 28.333 170 28.333z" fill="#a20000" fill-opacity=".353287"/></g></g><g transform="translate(8160)"><defs><clipPath id="clip_frame24_group"><path d="M0 0h340v340H0z"/></clipPath></defs><g clip-path="url(#clip_frame24_group)"><path d="M170 0C76.273 0 0 76.273 0 170s76.273 170 170 170 170-76.273 170-170S263.727 0 170 0zm0 28.333c78.398 0 141.667 63.269 141.667 141.667S248.398 311.667 170 311.667 28.333 248.398 28.333 170 91.602 28.333 170 28.333z" fill="#aa0000" fill-opacity=".388323"/></g></g><g transform="translate(8500)"><defs><clipPath id="clip_frame25_group"><path d="M0 0h340v340H0z"/></clipPath></defs><g clip-path="url(#clip_frame25_group)"><path d="M170 0C76.273 0 0 76.273 0 170s76.273 170 170 170 170-76.273 170-170S263.727 0 170 0zm0 28.333c78.398 0 141.667 63.269 141.667 141.667S248.398 311.667 170 311.667 28.333 248.398 28.333 170 91.602 28.333 170 28.333z" fill="#b20000" fill-opacity=".423131"/></g></g><g transform="translate(8840)"><defs><clipPath id="clip_frame26_group"><path d="M0 0h340v340H0z"/></clipPath></defs><g clip-path="url(#clip_frame26_group)"><path d="M170 0C76.273 0 0 76.273 0 170s76.273 170 170 170 170-76.273 170-170S263.727 0 170 0zm0 28.333c78.398 0 141.667 63.269 141.667 141.667S248.398 311.667 170 311.667 28.333 248.398 28.333 170 91.602 28.333 170 28.333z" fill="#b90000" fill-opacity=".457252"/></g></g><g transform="translate(9180)"><defs><clipPath id="clip_frame27_group"><path d="M0 0h340v340H0z"/></clipPath></defs><g clip-path="url(#clip_frame27_group)"><path d="M170 0C76.273 0 0 76.273 0 170s76.273 170 170 170 170-76.273 170-170S263.727 0 170 0zm0 28.333c78.398 0 141.667 63.269 141.667 141.667S248.398 311.667 170 311.667 28.333 248.398 28.333 170 91.602 28.333 170 28.333z" fill="#c00000" fill-opacity=".490324"/></g></g><g transform="translate(9520)"><defs><clipPath id="clip_frame28_group"><path d="M0 0h340v340H0z"/></clipPath></defs><g clip-path="url(#clip_frame28_group)"><path d="M170 0C76.273 0 0 76.273 0 170s76.273 170 170 170 170-76.273 170-170S263.727 0 170 0zm0 28.333c78.398 0 141.667 63.269 141.667 141.667S248.398 311.667 170 311.667 28.333 248.398 28.333 170 91.602 28.333 170 28.333z" fill="#c60000" fill-opacity=".522091"/></g></g><g transform="translate(9860)"><defs><clipPath id="clip_frame29_group"><path d="M0 0h340v340H0z"/></clipPath></defs><g clip-path="url(#clip_frame29_group)"><path d="M170 0C76.273 0 0 76.273 0 170s76.273 170 170 170 170-76.273 170-170S263.727 0 170 0zm0 28.333c78.398 0 141.667 63.269 141.667 141.667S248.398 311.667 170 311.667 28.333 248.398 28.333 170 91.602 28.333 170 28.333z" fill="#cb0000" fill-opacity=".552394"/></g></g><g transform="translate(10200)"><defs><clipPath id="clip_frame30_group"><path d="M0 0h340v340H0z"/></clipPath></defs><g clip-path="url(#clip_frame30_group)"><path d="M170 0C76.273 0 0 76.273 0 170s76.273 170 170 170 170-76.273 170-170S263.727 0 170 0zm0 28.333c78.398 0 141.667 63.269 141.667 141.667S248.398 311.667 170 311.667 28.333 248.398 28.333 170 91.602 28.333 170 28.333z" fill="#d00000" fill-opacity=".581152"/></g></g><g transform="translate(10540)"><defs><clipPath id="clip_frame31_group"><path d="M0 0h340v340H0z"/></clipPath></defs><g clip-path="url(#clip_frame31_group)"><path d="M170 0C76.273 0 0 76.273 0 170s76.273 170 170 170 170-76.273 170-170S263.727 0 170 0zm0 28.333c78.398 0 141.667 63.269 141.667 141.667S248.398 311.667 170 311.667 28.333 248.398 28.333 170 91.602 28.333 170 28.333z" fill="#d50000" fill-opacity=".608343"/></g></g><g transform="translate(10880)"><defs><clipPath id="clip_frame32_group"><path d="M0 0h340v340H0z"/></clipPath></defs><g clip-path="url(#clip_frame32_group)"><path d="M170 0C76.273 0 0 76.273 0 170s76.273 170 170 170 170-76.273 170-170S263.727 0 170 0zm0 28.333c78.398 0 141.667 63.269 141.667 141.667S248.398 311.667 170 311.667 28.333 248.398 28.333 170 91.602 28.333 170 28.333z" fill="#d90000" fill-opacity=".633989"/></g></g><g transform="translate(11220)"><defs><clipPath id="clip_frame33_group"><path d="M0 0h340v340H0z"/></clipPath></defs><g clip-path="url(#clip_frame33_group)"><path d="M170 0C76.273 0 0 76.273 0 170s76.273 170 170 170 170-76.273 170-170S263.727 0 170 0zm0 28.333c78.398 0 141.667 63.269 141.667 141.667S248.398 311.667 170 311.667 28.333 248.398 28.333 170 91.602 28.333 170 28.333z" fill="#dd0000" fill-opacity=".658137"/></g></g><g transform="translate(11560)"><defs><clipPath id="clip_frame34_group"><path d="M0 0h340v340H0z"/></clipPath></defs><g clip-path="url(#clip_frame34_group)"><path d="M170 0C76.273 0 0 76.273 0 170s76.273 170 170 170 170-76.273 170-170S263.727 0 170 0zm0 28.333c78.398 0 141.667 63.269 141.667 141.667S248.398 311.667 170 311.667 28.333 248.398 28.333 170 91.602 28.333 170 28.333z" fill="#e10000" fill-opacity=".680852"/></g></g><g transform="translate(11900)"><defs><clipPath id="clip_frame35_group"><path d="M0 0h340v340H0z"/></clipPath></defs><g clip-path="url(#clip_frame35_group)"><path d="M170 0C76.273 0 0 76.273 0 170s76.273 170 170 170 170-76.273 170-170S263.727 0 170 0zm0 28.333c78.398 0 141.667 63.269 141.667 141.667S248.398 311.667 170 311.667 28.333 248.398 28.333 170 91.602 28.333 170 28.333z" fill="#e40000" fill-opacity=".702207"/></g></g><g transform="translate(12240)"><defs><clipPath id="clip_frame36_group"><path d="M0 0h340v340H0z"/></clipPath></defs><g clip-path="url(#clip_frame36_group)"><path d="M170 0C76.273 0 0 76.273 0 170s76.273 170 170 170 170-76.273 170-170S263.727 0 170 0zm0 28.333c78.398 0 141.667 63.269 141.667 141.667S248.398 311.667 170 311.667 28.333 248.398 28.333 170 91.602 28.333 170 28.333z" fill="#e70000" fill-opacity=".72228"/></g></g><g transform="translate(12580)"><defs><clipPath id="clip_frame37_group"><path d="M0 0h340v340H0z"/></clipPath></defs><g clip-path="url(#clip_frame37_group)"><path d="M170 0C76.273 0 0 76.273 0 170s76.273 170 170 170 170-76.273 170-170S263.727 0 170 0zm0 28.333c78.398 0 141.667 63.269 141.667 141.667S248.398 311.667 170 311.667 28.333 248.398 28.333 170 91.602 28.333 170 28.333z" fill="#ea0000" fill-opacity=".741147"/></g></g><g transform="translate(12920)"><defs><clipPath id="clip_frame38_group"><path d="M0 0h340v340H0z"/></clipPath></defs><g clip-path="url(#clip_frame38_group)"><path d="M170 0C76.273 0 0 76.273 0 170s76.273 170 170 170 170-76.273 170-170S263.727 0 170 0zm0 28.333c78.398 0 141.667 63.269 141.667 141.667S248.398 311.667 170 311.667 28.333 248.398 28.333 170 91.602 28.333 170 28.333z" fill="#ed0000" fill-opacity=".758884"/></g></g><g transform="translate(13260)"><defs><clipPath id="clip_frame39_group"><path d="M0 0h340v340H0z"/></clipPath></defs><g clip-path="url(#clip_frame39_group)"><path d="M170 0C76.273 0 0 76.273 0 170s76.273 170 170 170 170-76.273 170-170S263.727 0 170 0zm0 28.333c78.398 0 141.667 63.269 141.667 141.667S248.398 311.667 170 311.667 28.333 248.398 28.333 170 91.602 28.333 170 28.333z" fill="#ef0000" fill-opacity=".775561"/></g></g><g transform="translate(13600)"><defs><clipPath id="clip_frame40_group"><path d="M0 0h340v340H0z"/></clipPath></defs><g clip-path="url(#clip_frame40_group)"><path d="M170 0C76.273 0 0 76.273 0 170s76.273 170 170 170 170-76.273 170-170S263.727 0 170 0zm0 28.333c78.398 0 141.667 63.269 141.667 141.667S248.398 311.667 170 311.667 28.333 248.398 28.333 170 91.602 28.333 170 28.333z" fill="#f10000" fill-opacity=".791246"/></g></g><g transform="translate(13940)"><defs><clipPath id="clip_frame41_group"><path d="M0 0h340v340H0z"/></clipPath></defs><g clip-path="url(#clip_frame41_group)"><path d="M170 0C76.273 0 0 76.273 0 170s76.273 170 170 170 170-76.273 170-170S263.727 0 170 0zm0 28.333c78.398 0 141.667 63.269 141.667 141.667S248.398 311.667 170 311.667 28.333 248.398 28.333 170 91.602 28.333 170 28.333z" fill="#f30000" fill-opacity=".806001"/></g></g><g transform="translate(14280)"><defs><clipPath id="clip_frame42_group"><path d="M0 0h340v340H0z"/></clipPath></defs><g clip-path="url(#clip_frame42_group)"><path d="M170 0C76.273 0 0 76.273 0 170s76.273 170 170 170 170-76.273 170-170S263.727 0 170 0zm0 28.333c78.398 0 141.667 63.269 141.667 141.667S248.398 311.667 170 311.667 28.333 248.398 28.333 170 91.602 28.333 170 28.333z" fill="#f50000" fill-opacity=".819884"/></g></g><g transform="translate(14620)"><defs><clipPath id="clip_frame43_group"><path d="M0 0h340v340H0z"/></clipPath></defs><g clip-path="url(#clip_frame43_group)"><path d="M170 0C76.273 0 0 76.273 0 170s76.273 170 170 170 170-76.273 170-170S263.727 0 170 0zm0 28.333c78.398 0 141.667 63.269 141.667 141.667S248.398 311.667 170 311.667 28.333 248.398 28.333 170 91.602 28.333 170 28.333z" fill="#f60000" fill-opacity=".83295"/></g></g><g transform="translate(14960)"><defs><clipPath id="clip_frame44_group"><path d="M0 0h340v340H0z"/></clipPath></defs><g clip-path="url(#clip_frame44_group)"><path d="M170 0C76.273 0 0 76.273 0 170s76.273 170 170 170 170-76.273 170-170S263.727 0 170 0zm0 28.333c78.398 0 141.667 63.269 141.667 141.667S248.398 311.667 170 311.667 28.333 248.398 28.333 170 91.602 28.333 170 28.333z" fill="#f80000" fill-opacity=".845247"/></g></g><g transform="translate(15300)"><defs><clipPath id="clip_frame45_group"><path d="M0 0h340v340H0z"/></clipPath></defs><g clip-path="url(#clip_frame45_group)"><path d="M170 0C76.273 0 0 76.273 0 170s76.273 170 170 170 170-76.273 170-170S263.727 0 170 0zm0 28.333c78.398 0 141.667 63.269 141.667 141.667S248.398 311.667 170 311.667 28.333 248.398 28.333 170 91.602 28.333 170 28.333z" fill="#f90000" fill-opacity=".856821"/></g></g><g transform="translate(15640)"><defs><clipPath id="clip_frame46_group"><path d="M0 0h340v340H0z"/></clipPath></defs><g clip-path="url(#clip_frame46_group)"><path d="M170 0C76.273 0 0 76.273 0 170s76.273 170 170 170 170-76.273 170-170S263.727 0 170 0zm0 28.333c78.398 0 141.667 63.269 141.667 141.667S248.398 311.667 170 311.667 28.333 248.398 28.333 170 91.602 28.333 170 28.333z" fill="#fa0000" fill-opacity=".867716"/></g></g><g transform="translate(15980)"><defs><clipPath id="clip_frame47_group"><path d="M0 0h340v340H0z"/></clipPath></defs><g clip-path="url(#clip_frame47_group)"><path d="M170 0C76.273 0 0 76.273 0 170s76.273 170 170 170 170-76.273 170-170S263.727 0 170 0zm0 28.333c78.398 0 141.667 63.269 141.667 141.667S248.398 311.667 170 311.667 28.333 248.398 28.333 170 91.602 28.333 170 28.333z" fill="#fb0000" fill-opacity=".877969"/></g></g><g transform="translate(16320)"><defs><clipPath id="clip_frame48_group"><path d="M0 0h340v340H0z"/></clipPath></defs><g clip-path="url(#clip_frame48_group)"><path d="M170 0C76.273 0 0 76.273 0 170s76.273 170 170 170 170-76.273 170-170S263.727 0 170 0zm0 28.333c78.398 0 141.667 63.269 141.667 141.667S248.398 311.667 170 311.667 28.333 248.398 28.333 170 91.602 28.333 170 28.333z" fill="#fc0000" fill-opacity=".887616"/></g></g></svg>